<svg width="21" height="29" viewBox="0 0 21 29" fill="none" xmlns="http://www.w3.org/2000/svg">
<path d="M5.38867 26.6998C10.4579 29.8498 16.8308 28.1442 19.6535 22.8821C20.6377 21.0474 21.0129 18.9446 20.9997 17.0168L20.7831 2.57829C20.7847 1.6449 20.2178 0.825455 19.5059 0.383087C18.7939 -0.0593189 17.888 -0.15508 17.1009 0.290178L5.37801 7.30124C3.81396 8.24911 2.33279 9.62213 1.33149 11.4887C-1.49121 16.7507 0.319419 23.5498 5.38867 26.6998ZM11.9979 14.3791C13.839 15.5232 14.5054 18.0183 13.4802 19.9294C12.4549 21.8406 10.1141 22.4671 8.27295 21.323C6.43182 20.179 5.76549 17.6839 6.79071 15.7727C7.81934 13.8552 10.1568 13.2351 11.9979 14.3791Z" fill="#0F8CE9"/>
</svg>
